$MeshFormat
2.2 0 8
$EndMeshFormat
$Nodes
6
1 -0.66090107608336468 -0.381571414184443902 -0.66090107608336468
2 0.66090107608336468 -0.381571414184443902 -0.66090107608336468
3 0 0.763142828368887804 -0.66090107608336468
4 -0.66090107608336468 -0.381571414184443902 0.66090107608336468
5 0.66090107608336468 -0.381571414184443902 0.66090107608336468
6 0 0.763142828368887804 0.66090107608336468
$EndNodes
$Elements
15
1 3 2 0 1 1 2 5 4
2 3 2 0 2 2 3 6 5
3 3 2 0 3 3 1 4 6
4 2 2 0 4 1 3 2
5 2 2 0 5 4 5 6
6 1 2 0 6 2 1
7 1 2 0 7 3 2
8 1 2 0 8 1 3
9 1 2 0 9 1 4
10 1 2 0 10 2 5
11 1 2 0 11 3 6
12 1 2 0 12 4 5
13 1 2 0 13 5 6
14 1 2 0 14 6 4
15 6 2 0 15 1 2 3 4 5 6
$EndElements