$MeshFormat
2.2 0 8
$EndMeshFormat
$Nodes
5
1 -0.908560296416069835 -0.908560296416069835 -0.227140074104017459
2 0.908560296416069835 -0.908560296416069835 -0.227140074104017459
3 0.908560296416069835 0.908560296416069835 -0.227140074104017459
4 -0.908560296416069835 0.908560296416069835 -0.227140074104017459
5 0 0 0.681420222312052348
$EndNodes
$Elements
14
1 2 2 0 1 1 2 5
2 2 2 0 2 2 3 5
3 2 2 0 3 3 4 5
4 2 2 0 4 4 1 5
5 3 2 0 5 1 4 3 2
6 1 2 0 6 1 2
7 1 2 0 7 2 3
8 1 2 0 8 3 4
9 1 2 0 9 4 1
10 1 2 0 10 1 5
11 1 2 0 11 2 5
12 1 2 0 12 3 5
13 1 2 0 13 4 5
14 7 2 0 14 1 2 3 4 5
$EndElements
