$MeshFormat
2.2 0 8
$EndMeshFormat
$Nodes
14
1 -0.908560296416069835 -0.908560296416069835 -0.227140074104017459
2 0.908560296416069835 -0.908560296416069835 -0.227140074104017459
3 0.908560296416069835 0.908560296416069835 -0.227140074104017459
4 -0.908560296416069835 0.908560296416069835 -0.227140074104017459
5 0 0 0.681420222312052348
6 0 -0.908560296416069835 -0.227140074104017459
7 -0.908560296416069835 0 -0.227140074104017459
8 -0.454280148208034917 -0.454280148208034917 0.227140074104017431
9 0.908560296416069835 0 -0.227140074104017459
10 0.454280148208034917 -0.454280148208034917 0.227140074104017431
11 0 0.908560296416069835 -0.227140074104017459
12 0.454280148208034917 0.454280148208034917 0.227140074104017431
13 -0.454280148208034917 0.454280148208034917 0.227140074104017431
14 0 0 -0.227140074104017459
$EndNodes
$Elements
14
1 9 2 0 1 1 2 5 6 10 8
2 9 2 0 2 2 3 5 9 12 10
3 9 2 0 3 3 4 5 11 13 12
4 9 2 0 4 4 1 5 7 8 13
5 10 2 0 5 1 4 3 2 7 11 9 6 14
6 8 2 0 6 1 2 6
7 8 2 0 7 2 3 9
8 8 2 0 8 3 4 11
9 8 2 0 9 4 1 7
10 8 2 0 10 1 5 8
11 8 2 0 11 2 5 10
12 8 2 0 12 3 5 12
13 8 2 0 13 4 5 13
14 14 2 0 14 1 2 3 4 5 6 7 8 9 10 11 12 13 14
$EndElements
