$MeshFormat
2.2 0 8
$EndMeshFormat
$Nodes
35
1  -0.500000000000000  -0.288675134594813  -0.204124145231931
2   0.500000000000000  -0.288675134594813  -0.204124145231931
3                   0   0.577350269189626  -0.204124145231931
4                   0                   0   0.612372435695794
5                   0  -0.288675134594813  -0.204124145231931
6   0.250000000000000   0.144337567297406  -0.204124145231931
7  -0.250000000000000   0.144337567297406  -0.204124145231931
8  -0.250000000000000  -0.144337567297406   0.204124145231932
9   0.250000000000000  -0.144337567297406   0.204124145231932
10                   0   0.288675134594813   0.204124145231932
11  -0.250000000000000  -0.288675134594813  -0.204124145231931
12   0.250000000000000  -0.288675134594813  -0.204124145231931
13   0.375000000000000  -0.072168783648703  -0.204124145231931
14   0.125000000000000   0.360843918243516  -0.204124145231931
15  -0.125000000000000   0.360843918243516  -0.204124145231931
16  -0.375000000000000  -0.072168783648703  -0.204124145231931
17  -0.375000000000000  -0.216506350946110                   0
18  -0.125000000000000  -0.072168783648703   0.408248290463863
19   0.375000000000000  -0.216506350946110                   0
20   0.125000000000000  -0.072168783648703   0.408248290463863
21                   0   0.433012701892219                   0
22                   0   0.144337567297406   0.408248290463863
23  -0.125000000000000  -0.216506350946110                   0
24   0.125000000000000  -0.216506350946110                   0
25                   0  -0.144337567297406   0.204124145231932
26   0.250000000000000                   0                   0
27   0.125000000000000   0.216506350946110                   0
28   0.125000000000000   0.072168783648703   0.204124145231932
29  -0.250000000000000                   0   0.000000000000000
30  -0.125000000000000   0.072168783648703   0.204124145231932
31  -0.125000000000000   0.216506350946110   0.000000000000000
32  -0.125000000000000  -0.072168783648703  -0.204124145231932
33                   0   0.144337567297406  -0.204124145231932
34   0.125000000000000  -0.072168783648703  -0.204124145231931
35                   0                   0                   0
$EndNodes
$Elements
35
 1  8 2 0 1 1 2 5
 2  8 2 0 1 2 3 6
 3  8 2 0 1 3 1 7
 4  8 2 0 1 1 4 8
 5  8 2 0 1 2 4 9
 6  8 2 0 1 3 4 10
 7 11 2 0 3 1 5 7 8 11 32 16 17 29 23
 8 11 2 0 3 5 2 6 9 12 13 34 24 26 19
 9 11 2 0 3 7 6 3 10 33 14 15 31 21 27
10 11 2 0 3 8 9 10 4 25 28 30 18 22 20
11 14 2 0 4 7 6 9 8 5 33 29 32 26 34 25 24 23 35
12 14 2 0 4 7 8 9 6 10 29 33 31 25 30 26 28 27 35
13 14 2 0 5 5 7 10 9 6 32 24 34 31 33 28 27 26 35
14 14 2 0 5 5 9 10 7 8 24 32 23 28 25 31 30 29 35
15 14 2 0 6 6 5 8 10 7 34 27 33 23 32 30 29 31 35
16 14 2 0 6 6 10 8 5 9 27 34 26 30 28 23 25 24 35
17  9 2 0 1 1 5 8 11 23 17
18  9 2 0 1 5 2 9 12 19 24
19  9 2 0 1 8 9 4 25 20 18
20  9 2 0 1 5 9 8 24 25 23
21  9 2 0 2 2 6 9 13 26 19
22  9 2 0 2 6 3 10 14 21 27
23  9 2 0 2 9 10 4 28 22 20
24  9 2 0 2 6 10 9 27 28 26
25  9 2 0 3 1 8 7 17 29 16
26  9 2 0 3 8 4 10 18 22 30
27  9 2 0 3 7 10 3 31 21 15
28  9 2 0 3 8 10 7 30 31 29
29  9 2 0 4 1 7 5 16 32 11
30  9 2 0 4 7 3 6 15 14 33
31  9 2 0 4 5 6 2 34 13 12
32  9 2 0 4 7 6 5 33 34 32
33  3 2 0 5 6 9 8 7
34  3 2 0 5 5 7 10 9
35  3 2 0 5 5 8 10 6
$EndElements
